<svg xmlns="http://www.w3.org/2000/svg" viewBox="0 0 128 128" width="128" height="128" role="img" aria-label="ETZI">
  <title>ETZI</title>
  <defs><clipPath id="badge-ETZI"><polygon points="109.0,64.0 86.5,103.0 41.5,103.0 19.0,64.0 41.5,25.0 86.5,25.0"/></clipPath></defs>
  <polygon points="64,64 122.0,64.0 93.0,114.2" fill="#1370A8"/>
  <polygon points="64,64 93.0,114.2 35.0,114.2" fill="#0F5485"/>
  <polygon points="64,64 35.0,114.2 6.0,64.0" fill="#0F5485"/>
  <polygon points="64,64 6.0,64.0 35.0,13.8" fill="#1370A8"/>
  <polygon points="64,64 35.0,13.8 93.0,13.8" fill="#29B5E8"/>
  <polygon points="64,64 93.0,13.8 122.0,64.0" fill="#46CCF7"/>
  <polygon points="109.0,64.0 86.5,103.0 41.5,103.0 19.0,64.0 41.5,25.0 86.5,25.0" fill="#0F5485" opacity="0.92"/>
  <polygon points="122.0,64.0 93.0,114.2 35.0,114.2 6.0,64.0 35.0,13.8 93.0,13.8" fill="none" stroke="#E6F7FD" stroke-width="3" stroke-linejoin="round"/>
  <g clip-path="url(#badge-ETZI)">
  <polygon points="43,102 49,81 58,73 70,73 79,81 85,102" fill="#FFFFFF"/>
  <polygon points="64,73 79,81 85,102 64,102" fill="#E6F7FD"/>
  <polygon points="64.0,66.0 51.9,59.0 51.9,45.0 64.0,38.0 76.1,45.0 76.1,59.0" fill="#E6F7FD"/>
  <polygon points="64.0,66.0 51.9,59.0 51.9,45.0" fill="#FFFFFF"/>
  <polygon points="64.0,27.0 66.6,34.4 74.5,34.6 68.3,39.4 70.5,46.9 64.0,42.5 57.5,46.9 59.7,39.4 53.5,34.6 61.4,34.4" fill="#FFFFFF"/>
  <polygon points="38.0,46.0 39.5,50.0 43.7,50.1 40.4,52.8 41.5,56.9 38.0,54.5 34.5,56.9 35.6,52.8 32.3,50.1 36.5,50.0" fill="#46CCF7"/>
  <polygon points="90.0,46.0 91.5,50.0 95.7,50.1 92.4,52.8 93.5,56.9 90.0,54.5 86.5,56.9 87.6,52.8 84.3,50.1 88.5,50.0" fill="#46CCF7"/>
  </g>
</svg>
